<?xml version="1.0" encoding="UTF-8" standalone="no"?>
<!DOCTYPE svg PUBLIC "-//W3C//DTD SVG 1.1//EN"
 "http://www.w3.org/Graphics/SVG/1.1/DTD/svg11.dtd">
<!-- Generated by graphviz version 2.40.1 (20161225.0304)
 -->
<!-- Title: dependencies Pages: 1 -->
<svg width="504pt" height="211pt"
 viewBox="0.00 0.00 504.00 211.00" xmlns="http://www.w3.org/2000/svg" xmlns:xlink="http://www.w3.org/1999/xlink">
<g id="graph0" class="graph" transform="scale(1 1) rotate(0) translate(4 207)">
<title>dependencies</title>
<polygon fill="#ffffff" stroke="transparent" points="-4,4 -4,-207 500,-207 500,4 -4,4"/>
<text text-anchor="start" x="227.0091" y="-42.4" font-family="sans-serif" font-weight="bold" font-size="14.00" fill="#000000">Legend</text>
<polygon fill="#ffffb3" stroke="transparent" points="14,-10 14,-30 34,-30 34,-10 14,-10"/>
<text text-anchor="start" x="37.629" y="-15.4" font-family="sans-serif" font-size="14.00" fill="#000000"> &#160;Declarations</text>
<polygon fill="#8dd3c7" stroke="transparent" points="127,-10 127,-30 147,-30 147,-10 127,-10"/>
<text text-anchor="start" x="150.7251" y="-15.4" font-family="sans-serif" font-size="14.00" fill="#000000"> &#160;Module</text>
<polygon fill="#80b1d3" stroke="transparent" points="213,-10 213,-30 233,-30 233,-10 213,-10"/>
<text text-anchor="start" x="236.7812" y="-15.4" font-family="sans-serif" font-size="14.00" fill="#000000"> &#160;Bootstrap</text>
<polygon fill="#fdb462" stroke="transparent" points="310,-10 310,-30 330,-30 330,-10 310,-10"/>
<text text-anchor="start" x="333.6732" y="-15.4" font-family="sans-serif" font-size="14.00" fill="#000000"> &#160;Providers</text>
<polygon fill="#fb8072" stroke="transparent" points="406,-10 406,-30 426,-30 426,-10 406,-10"/>
<text text-anchor="start" x="429.7258" y="-15.4" font-family="sans-serif" font-size="14.00" fill="#000000"> &#160;Exports</text>
<g id="clust1" class="cluster">
<title>cluster_TokenAuthModule</title>
<polygon fill="none" stroke="#000000" stroke-dasharray="1,5" points="108,-70 108,-195 388,-195 388,-70 108,-70"/>
</g>
<g id="clust3" class="cluster">
<title>cluster_TokenAuthModule_imports</title>
<polygon fill="none" stroke="#000000" points="116,-78 116,-130 380,-130 380,-78 116,-78"/>
</g>
<!-- CommonModule -->
<g id="node1" class="node">
<title>CommonModule</title>
<polygon fill="#8dd3c7" stroke="#000000" points="371.6681,-122 368.6681,-126 347.6681,-126 344.6681,-122 260.3319,-122 260.3319,-86 371.6681,-86 371.6681,-122"/>
<text text-anchor="middle" x="316" y="-99.8" font-family="Times,serif" font-size="14.00" fill="#000000">CommonModule</text>
</g>
<!-- TokenAuthModule -->
<g id="node3" class="node">
<title>TokenAuthModule</title>
<polygon fill="#8dd3c7" stroke="#000000" points="310.8146,-187 307.8146,-191 286.8146,-191 283.8146,-187 187.1854,-187 187.1854,-151 310.8146,-151 310.8146,-187"/>
<text text-anchor="middle" x="249" y="-164.8" font-family="Times,serif" font-size="14.00" fill="#000000">TokenAuthModule</text>
</g>
<!-- CommonModule&#45;&gt;TokenAuthModule -->
<g id="edge1" class="edge">
<title>CommonModule&#45;&gt;TokenAuthModule</title>
<path fill="none" stroke="#000000" d="M285.4117,-122.1061C285.4117,-122.1061 285.4117,-140.991 285.4117,-140.991"/>
<polygon fill="#000000" stroke="#000000" points="281.9117,-140.9909 285.4117,-150.991 288.9117,-140.991 281.9117,-140.9909"/>
</g>
<!-- HttpClientModule -->
<g id="node2" class="node">
<title>HttpClientModule</title>
<polygon fill="#8dd3c7" stroke="#000000" points="242.1611,-122 239.1611,-126 218.1611,-126 215.1611,-122 123.8389,-122 123.8389,-86 242.1611,-86 242.1611,-122"/>
<text text-anchor="middle" x="183" y="-99.8" font-family="Times,serif" font-size="14.00" fill="#000000">HttpClientModule</text>
</g>
<!-- HttpClientModule&#45;&gt;TokenAuthModule -->
<g id="edge2" class="edge">
<title>HttpClientModule&#45;&gt;TokenAuthModule</title>
<path fill="none" stroke="#000000" d="M214.8366,-122.1061C214.8366,-122.1061 214.8366,-140.991 214.8366,-140.991"/>
<polygon fill="#000000" stroke="#000000" points="211.3367,-140.9909 214.8366,-150.991 218.3367,-140.991 211.3367,-140.9909"/>
</g>
</g>
</svg>
